<svg id="Black" xmlns="http://www.w3.org/2000/svg" viewBox="0 0 23.9 20.86"><title>Vector Smart Object</title><path id="_Compound_Path_" data-name="&lt;Compound Path&gt;" d="M23.17,3.59A6.1,6.1,0,0,0,17.34,0,6.85,6.85,0,0,0,12,2.58c-0.51-.48-0.86-0.86-1.26-1.18A6.7,6.7,0,0,0,2,1.83C-0.29,4.07-.77,8,1.37,10.31c3.34,3.62,7,7,10.57,10.55,3.55-3.47,7-6.72,10.32-10.18A6.05,6.05,0,0,0,23.17,3.59ZM20.52,9.37a11.13,11.13,0,0,1-.83.88L12,18c-2.9-2.9-5.65-5.6-8.34-8.36a4.49,4.49,0,0,1-.83-5.26A4.09,4.09,0,0,1,7.09,2.08C9,2.29,10.17,3.49,10.73,5.7,10.8,6,10.88,6.24,11,6.54h2l0.28-1c0.57-2.07,1.8-3.26,3.59-3.45A4.06,4.06,0,0,1,21,4.19,4.69,4.69,0,0,1,20.52,9.37Z"/></svg>