<svg xmlns="http://www.w3.org/2000/svg" viewBox="0 0 79.5 79.5">
<path d="M39.7,79.5c-10.6,0-20.6-4.2-28.1-11.7C4.1,60.3,0,50.3,0,39.7C0.1,17.8,17.9,0,39.8,0c22,0,39.8,17.9,39.7,39.9 C79.5,61.7,61.7,79.5,39.7,79.5L39.7,79.5z M39.6,7.5c-8.7,0-16.8,3.4-22.8,9.5c-6.1,6.1-9.4,14.3-9.3,22.9 c0.1,17.7,14.6,32.2,32.3,32.2h0.1C57.7,72,72.2,57.5,72.1,39.6C72.1,21.9,57.6,7.5,39.8,7.5H39.6z"/>
<path d="M36,48.7l0-1.5c0-3,0-5.9,0.1-8.8c0.2-0.1,0.5-0.3,0.7-0.3c0.4-0.1,0.9-0.1,1.3-0.1l0.8,0c0.6,0,1.2,0,1.8-0.1 c2.9-0.5,4.7-2.5,5-5.4c0.2-2.8-1.1-5-3.7-6.1C41,26.2,40.1,26,39.2,26c-2.2,0-3.8,1.1-4.5,2.9c-0.7,1.9-1.6,2.1-3.1,2.1 c-0.2,0-0.5,0-0.7,0c-0.3,0-0.5,0-0.8,0l-0.2,0c-0.6,0-1.2,0-1.8,0l-1.8,0c0.1-2.9,1.2-5.7,3.3-8c2.6-2.8,6.2-4.4,9.9-4.4 c1.1,0,2.2,0.1,3.3,0.4c5.7,1.5,9,5.2,10,10.8c1,5.7-1,10.3-5.9,13.4c-1.9,1.2-4,2.6-3.7,5.4H36z"/>
<rect x="36.1" y="53.8" width="7" height="7.1"/>
</svg>
