<?xml version="1.0" encoding="utf-8"?>
<!-- Generator: Adobe Illustrator 17.0.0, SVG Export Plug-In . SVG Version: 6.00 Build 0)  -->
<!DOCTYPE svg PUBLIC "-//W3C//DTD SVG 1.1//EN" "http://www.w3.org/Graphics/SVG/1.1/DTD/svg11.dtd">
<svg version="1.1" id="Layer_1" xmlns="http://www.w3.org/2000/svg" xmlns:xlink="http://www.w3.org/1999/xlink" x="0px" y="0px"
	 width="19.743px" height="17px" viewBox="0 0 19.743 17" enable-background="new 0 0 19.743 17" xml:space="preserve">
<g>
	<defs>
		<rect id="SVGID_1_" width="19.743" height="17"/>
	</defs>
	<clipPath id="SVGID_2_">
		<use xlink:href="#SVGID_1_"  overflow="visible"/>
	</clipPath>
	<path clip-path="url(#SVGID_2_)" fill="#FFFFFF" d="M15.922,8.5c0-2.58-2.099-4.679-4.679-4.679v1.786
		c1.595,0,2.893,1.298,2.893,2.893s-1.298,2.893-2.893,2.893v1.786C13.823,13.179,15.922,11.08,15.922,8.5"/>
	<path clip-path="url(#SVGID_2_)" fill="#FFFFFF" d="M11.244,0v1.786c3.702,0,6.713,3.012,6.713,6.714s-3.011,6.714-6.713,6.714V17
		c4.687,0,8.499-3.813,8.499-8.5S15.931,0,11.244,0"/>
	<path clip-path="url(#SVGID_2_)" fill="#FFFFFF" d="M0.917,5.53C0.41,5.53,0,5.941,0,6.447v4.107c0,0.506,0.41,0.917,0.917,0.917
		h3.385l4.481,4.351V1.179L4.302,5.53H0.917z"/>
</g>
</svg>
